# xmcd CD database file
#
# Track frame offsets:
#	151
#	16343
#	34718
#	50636
#	67169
#	82802
#	100323
#	118464
#	132307
#	147988
#	164528
#	184013
#	196612
#	210514
#	224716
#
# Disc length: 3202 seconds
#
# Revision: 0
# Processed by: cddbd v1.5.1PL2 Copyright (c) Steve Scherf et al.
# Submitted via: CDex 1.51
#
DISCID=e20c800f
DTITLE=Chantal Pary - best of
DYEAR=1900
DGENRE=Québécois
TTITLE0=après toi
TTITLE1=sha-la-la
TTITLE2=Bambino
TTITLE3=what's a woman
TTITLE4=je m'envole
TTITLE5=notre père...... délivre-moi du mal
TTITLE6=when something is wrong with my baby (duo Carl Williams)
TTITLE7=qui a dit on ne meurt pas d'amour
TTITLE8=un bateau sur la mer
TTITLE9=vivre l'amour et le chanter
TTITLE10=le temps qu'il nous reste
TTITLE11=quand nous aimerons la vie
TTITLE12=lorsqu'on est heureux
TTITLE13=San Salvador
TTITLE14=les visages de l'amour
EXTD=
EXTT0=
EXTT1=
EXTT2=
EXTT3=
EXTT4=
EXTT5=
EXTT6=
EXTT7=
EXTT8=
EXTT9=
EXTT10=
EXTT11=
EXTT12=
EXTT13=
EXTT14=
PLAYORDER=
